HIERARCHY
ROOT root
{
	OFFSET	0	13.1	24.9
	CHANNELS 6  Xposition Yposition Zposition Xrotation Yrotation Zrotation
	JOINT spine_1
	{
		OFFSET	0	9.99999	0
		CHANNELS 3  Xrotation Yrotation Zrotation
		JOINT spine_2
		{
			OFFSET	0	112	-10
			CHANNELS 3  Xrotation Yrotation Zrotation
			JOINT spine_3
			{
				OFFSET	0	206.5	19.3
				CHANNELS 3  Xrotation Yrotation Zrotation
				JOINT spine_4
				{
					OFFSET	0	110.4	14.6
					CHANNELS 3  Xrotation Yrotation Zrotation
					JOINT neck_1
					{
						OFFSET	0	71.8	-50.3
						CHANNELS 3  Xrotation Yrotation Zrotation
						JOINT neck_2
						{
							OFFSET	0	86.2	-25.8
							CHANNELS 3  Xrotation Yrotation Zrotation
							JOINT head_ee
							{
								OFFSET	0	179.8	-8.7
								CHANNELS 3  Xrotation Yrotation Zrotation
								End Site
								{
									OFFSET	1	0	0
								}
							}
						}
					}
					JOINT left_clavicle
					{
						OFFSET	-43.2	22.4	-70.8
						CHANNELS 3  Xrotation Yrotation Zrotation
						JOINT left_shoulder
						{
							OFFSET	-93.9	-5.79999	48.7
							CHANNELS 3  Xrotation Yrotation Zrotation
							JOINT left_elbow
							{
								OFFSET	-291.4	-30.8	15.2
								CHANNELS 3  Xrotation Yrotation Zrotation
								JOINT left_lowarm_twist
								{
									OFFSET	-110.7	-3.89999	13.6
									CHANNELS 3  Xrotation Yrotation Zrotation
									JOINT left_hand
									{
										OFFSET	-110.7	-3.89999	13.6
										CHANNELS 3  Xrotation Yrotation Zrotation
										JOINT left_ee
										{
											OFFSET	-80.8	-5.10001	12.1
											CHANNELS 3  Xrotation Yrotation Zrotation
											End Site
											{
												OFFSET	1	0	0
											}
										}
									}
								}
							}
						}
					}
					JOINT right_clavicle
					{
						OFFSET	43.2	22.4	-70.8
						CHANNELS 3  Xrotation Yrotation Zrotation
						JOINT right_shoulder
						{
							OFFSET	93.9	-5.79999	48.7
							CHANNELS 3  Xrotation Yrotation Zrotation
							JOINT right_elbow
							{
								OFFSET	291.4	-30.8	15.2
								CHANNELS 3  Xrotation Yrotation Zrotation
								JOINT right_lowarm_twist
								{
									OFFSET	110.7	-3.89999	13.6
									CHANNELS 3  Xrotation Yrotation Zrotation
									JOINT right_hand
									{
										OFFSET	110.7	-3.89999	13.6
										CHANNELS 3  Xrotation Yrotation Zrotation
										JOINT right_ee
										{
											OFFSET	80.8	-5.10001	12.1
											CHANNELS 3  Xrotation Yrotation Zrotation
											End Site
											{
												OFFSET	1	0	0
											}
										}
									}
								}
							}
						}
					}
				}
			}
		}
	}
	JOINT left_hip
	{
		OFFSET	-82.8	-127.5	0.300001
		CHANNELS 3  Xrotation Yrotation Zrotation
		JOINT left_knee
		{
			OFFSET	-28.2	-396.7	2.2
			CHANNELS 3  Xrotation Yrotation Zrotation
			JOINT left_ankle
			{
				OFFSET	-11.7	-411.3	35.4
				CHANNELS 3  Xrotation Yrotation Zrotation
				JOINT left_toes
				{
					OFFSET	0	-60	-88.6
					CHANNELS 3  Xrotation Yrotation Zrotation
					JOINT left_foot_ee
					{
						OFFSET	-22.5	-16.5	-42.2
						CHANNELS 3  Xrotation Yrotation Zrotation
						End Site
						{
							OFFSET	1	0	0
						}
					}
				}
			}
		}
	}
	JOINT right_hip
	{
		OFFSET	82.8	-127.5	0.300001
		CHANNELS 3  Xrotation Yrotation Zrotation
		JOINT right_knee
		{
			OFFSET	28.2	-396.7	2.2
			CHANNELS 3  Xrotation Yrotation Zrotation
			JOINT right_ankle
			{
				OFFSET	11.7	-411.3	35.4
				CHANNELS 3  Xrotation Yrotation Zrotation
				JOINT right_toes
				{
					OFFSET	0	-60	-88.6
					CHANNELS 3  Xrotation Yrotation Zrotation
					JOINT right_foot_ee
					{
						OFFSET	22.5	-16.5	-42.2
						CHANNELS 3  Xrotation Yrotation Zrotation
						End Site
						{
							OFFSET	1	0	0
						}
					}
				}
			}
		}
	}
}
MOTION
Frames: 11
Frame Time: 0.02
391.555 721.904 -1204.45 175.559381738 -37.3220356841 172.772226458 -2.47057 0.23445 1.32703 -2.46961 0.14954 1.33926 -2.46491 -0.19284 1.33371 -2.46739 0.0201958 1.34743 1.53525 9.39604 -2.27484 1.88786 18.4659 -1.72107 -0.0 0.0 -0.0 9.15062 -1.48579 17.959 -2.29753 15.3396 61.605 0.694387 -18.9822 0.116091 -4.56458 -0.183021 0.553872 0.94901 -1.57781 5.70462 -0.0 0.0 -0.0 13.3285 26.6344 -26.3603 -5.49313 -6.00922 -63.8899 0.343721 9.66324 -0.0290541 -5.80421 0.240305 -0.701655 -1.5324 8.80574 14.2292 0.0 0.0 0.0 2.92668 22.6885 1.42254 -19.2406 0.303901 2.92314 12.7666 11.693 -1.80097 34.6168 -0.0 -0.0 -0.0 0.0 -0.0 5.82439 -1.002 10.519 -14.6708 -0.321043 -2.22238 10.7742 5.37014 1.56873 22.0479 -0.0 -0.0 0.0 0.0 0.0 
394.117617641 717.456 -1204.97899133 175.335699533 -40.4980920018 173.629654472 -2.45695 0.207685 1.59138 -2.45555 0.106013 1.60137 -2.45096 -0.300677 1.57646 -2.45443 -0.0479649 1.60415 1.99444 10.328 2.49964 2.216 16.0599 3.57047 -0.0 0.0 -0.0 7.75044 -6.96522 15.0616 -1.65241 14.0274 65.9509 0.616541 -16.9836 0.0920536 -2.28736 -0.0861884 0.279347 0.748518 -2.7201 3.88129 -0.0 0.0 -0.0 13.2354 25.9613 -26.2265 -5.16668 -5.82556 -67.4333 0.404187 11.3224 -0.0400669 -2.36849 0.0894501 -0.289192 -1.50115 7.12663 13.2739 0.0 0.0 0.0 0.113962 25.197 -0.215121 -7.64707 0.238495 1.1485 14.914 6.72686 -2.08157 35.7675 -0.0 -0.0 -0.0 0.0 -0.0 7.72227 -1.19236 9.50546 -22.4177 -0.25909 -3.40852 3.10646 -1.73096 0.45399 22.0599 -0.0 -0.0 0.0 0.0 0.0 
394.122307447 717.456 -1204.95574052 175.371303684 -39.9804290877 173.68477032 -2.45695 0.207685 1.59138 -2.45555 0.106013 1.60137 -2.45096 -0.300677 1.57646 -2.45443 -0.0479649 1.60415 1.99444 10.328 2.49964 2.216 16.0599 3.57047 -0.0 0.0 -0.0 7.75044 -6.96522 15.0616 -1.65241 14.0274 65.9509 0.616541 -16.9836 0.0920536 -2.28736 -0.0861884 0.279347 0.748518 -2.7201 3.88129 -0.0 0.0 -0.0 13.2354 25.9613 -26.2265 -5.16668 -5.82556 -67.4333 0.404187 11.3224 -0.0400669 -2.36849 0.0894501 -0.289192 -1.50115 7.12663 13.2739 0.0 0.0 0.0 0.113962 25.197 -0.215121 -7.64707 0.238495 1.1485 14.914 6.72686 -2.08157 35.7675 -0.0 -0.0 -0.0 0.0 -0.0 7.72227 -1.19236 9.50546 -22.4177 -0.25909 -3.40852 3.10646 -1.73096 0.45399 22.0599 -0.0 -0.0 0.0 0.0 0.0 
394.131941277 717.456 -1204.90410864 175.446939628 -38.8340227381 173.803908334 -2.45695 0.207685 1.59138 -2.45555 0.106013 1.60137 -2.45096 -0.300677 1.57646 -2.45443 -0.0479649 1.60415 1.99444 10.328 2.49964 2.216 16.0599 3.57047 -0.0 0.0 -0.0 7.75044 -6.96522 15.0616 -1.65241 14.0274 65.9509 0.616541 -16.9836 0.0920536 -2.28736 -0.0861884 0.279347 0.748518 -2.7201 3.88129 -0.0 0.0 -0.0 13.2354 25.9613 -26.2265 -5.16668 -5.82556 -67.4333 0.404187 11.3224 -0.0400669 -2.36849 0.0894501 -0.289192 -1.50115 7.12663 13.2739 0.0 0.0 0.0 0.113962 25.197 -0.215121 -7.64707 0.238495 1.1485 14.914 6.72686 -2.08157 35.7675 -0.0 -0.0 -0.0 0.0 -0.0 7.72227 -1.19236 9.50546 -22.4177 -0.25909 -3.40852 3.10646 -1.73096 0.45399 22.0599 -0.0 -0.0 0.0 0.0 0.0 
394.13564975 717.456 -1204.88253655 175.477206211 -38.3562384541 173.852426577 -2.45695 0.207685 1.59138 -2.45555 0.106013 1.60137 -2.45096 -0.300677 1.57646 -2.45443 -0.0479649 1.60415 1.99444 10.328 2.49964 2.216 16.0599 3.57047 -0.0 0.0 -0.0 7.75044 -6.96522 15.0616 -1.65241 14.0274 65.9509 0.616541 -16.9836 0.0920536 -2.28736 -0.0861884 0.279347 0.748518 -2.7201 3.88129 -0.0 0.0 -0.0 13.2354 25.9613 -26.2265 -5.16668 -5.82556 -67.4333 0.404187 11.3224 -0.0400669 -2.36849 0.0894501 -0.289192 -1.50115 7.12663 13.2739 0.0 0.0 0.0 0.113962 25.197 -0.215121 -7.64707 0.238495 1.1485 14.914 6.72686 -2.08157 35.7675 -0.0 -0.0 -0.0 0.0 -0.0 7.72227 -1.19236 9.50546 -22.4177 -0.25909 -3.40852 3.10646 -1.73096 0.45399 22.0599 -0.0 -0.0 0.0 0.0 0.0 
394.132438973 717.456 -1204.90127524 175.45095869 -38.7712294918 173.810322008 -2.45695 0.207685 1.59138 -2.45555 0.106013 1.60137 -2.45096 -0.300677 1.57646 -2.45443 -0.0479649 1.60415 1.99444 10.328 2.49964 2.216 16.0599 3.57047 -0.0 0.0 -0.0 7.75044 -6.96522 15.0616 -1.65241 14.0274 65.9509 0.616541 -16.9836 0.0920536 -2.28736 -0.0861884 0.279347 0.748518 -2.7201 3.88129 -0.0 0.0 -0.0 13.2354 25.9613 -26.2265 -5.16668 -5.82556 -67.4333 0.404187 11.3224 -0.0400669 -2.36849 0.0894501 -0.289192 -1.50115 7.12663 13.2739 0.0 0.0 0.0 0.113962 25.197 -0.215121 -7.64707 0.238495 1.1485 14.914 6.72686 -2.08157 35.7675 -0.0 -0.0 -0.0 0.0 -0.0 7.72227 -1.19236 9.50546 -22.4177 -0.25909 -3.40852 3.10646 -1.73096 0.45399 22.0599 -0.0 -0.0 0.0 0.0 0.0 
394.131059374 717.456 -1204.90908507 175.439848383 -38.9443379982 173.79261324 -2.45695 0.207685 1.59138 -2.45555 0.106013 1.60137 -2.45096 -0.300677 1.57646 -2.45443 -0.0479649 1.60415 1.99444 10.328 2.49964 2.216 16.0599 3.57047 -0.0 0.0 -0.0 7.75044 -6.96522 15.0616 -1.65241 14.0274 65.9509 0.616541 -16.9836 0.0920536 -2.28736 -0.0861884 0.279347 0.748518 -2.7201 3.88129 -0.0 0.0 -0.0 13.2354 25.9613 -26.2265 -5.16668 -5.82556 -67.4333 0.404187 11.3224 -0.0400669 -2.36849 0.0894501 -0.289192 -1.50115 7.12663 13.2739 0.0 0.0 0.0 0.113962 25.197 -0.215121 -7.64707 0.238495 1.1485 14.914 6.72686 -2.08157 35.7675 -0.0 -0.0 -0.0 0.0 -0.0 7.72227 -1.19236 9.50546 -22.4177 -0.25909 -3.40852 3.10646 -1.73096 0.45399 22.0599 -0.0 -0.0 0.0 0.0 0.0 
394.126279395 717.456 -1204.93514253 175.402032217 -39.5225801861 173.732823874 -2.45695 0.207685 1.59138 -2.45555 0.106013 1.60137 -2.45096 -0.300677 1.57646 -2.45443 -0.0479649 1.60415 1.99444 10.328 2.49964 2.216 16.0599 3.57047 -0.0 0.0 -0.0 7.75044 -6.96522 15.0616 -1.65241 14.0274 65.9509 0.616541 -16.9836 0.0920536 -2.28736 -0.0861884 0.279347 0.748518 -2.7201 3.88129 -0.0 0.0 -0.0 13.2354 25.9613 -26.2265 -5.16668 -5.82556 -67.4333 0.404187 11.3224 -0.0400669 -2.36849 0.0894501 -0.289192 -1.50115 7.12663 13.2739 0.0 0.0 0.0 0.113962 25.197 -0.215121 -7.64707 0.238495 1.1485 14.914 6.72686 -2.08157 35.7675 -0.0 -0.0 -0.0 0.0 -0.0 7.72227 -1.19236 9.50546 -22.4177 -0.25909 -3.40852 3.10646 -1.73096 0.45399 22.0599 -0.0 -0.0 0.0 0.0 0.0 
394.123007671 717.456 -1204.95217288 175.376679935 -39.901078669 173.693144604 -2.45695 0.207685 1.59138 -2.45555 0.106013 1.60137 -2.45096 -0.300677 1.57646 -2.45443 -0.0479649 1.60415 1.99444 10.328 2.49964 2.216 16.0599 3.57047 -0.0 0.0 -0.0 7.75044 -6.96522 15.0616 -1.65241 14.0274 65.9509 0.616541 -16.9836 0.0920536 -2.28736 -0.0861884 0.279347 0.748518 -2.7201 3.88129 -0.0 0.0 -0.0 13.2354 25.9613 -26.2265 -5.16668 -5.82556 -67.4333 0.404187 11.3224 -0.0400669 -2.36849 0.0894501 -0.289192 -1.50115 7.12663 13.2739 0.0 0.0 0.0 0.113962 25.197 -0.215121 -7.64707 0.238495 1.1485 14.914 6.72686 -2.08157 35.7675 -0.0 -0.0 -0.0 0.0 -0.0 7.72227 -1.19236 9.50546 -22.4177 -0.25909 -3.40852 3.10646 -1.73096 0.45399 22.0599 -0.0 -0.0 0.0 0.0 0.0 
408.509219258 715.149 -1215.44489765 176.423236049 -36.7143677654 175.096909629 -2.4277 0.203794 1.03154 -2.42711 0.137745 1.04242 -2.42387 -0.12868 1.04358 -2.42539 0.037739 1.0508 3.0621 9.48253 2.0189 3.26899 14.8131 2.89166 -0.0 0.0 -0.0 7.45003 -10.0316 14.3404 1.26451 11.6307 67.4064 0.54273 -15.0485 0.0716858 1.10953 0.0377696 -0.136671 0.672073 -1.81426 3.74343 -0.0 0.0 -0.0 12.7767 25.9076 -25.1726 -9.04183 -4.91832 -66.9281 0.41448 11.603 -0.0421125 -0.266326 0.00945984 -0.0326969 -1.6564 7.77655 14.6406 0.0 0.0 0.0 -1.40813 27.9634 1.18972 -3.2942 0.121547 0.490875 20.2444 3.28661 -2.76705 38.9112 -0.0 -0.0 -0.0 0.0 -0.0 7.92232 6.58841 8.11134 -23.568 -0.236237 -3.58356 2.25877 -12.1289 0.329422 23.6646 -0.0 -0.0 0.0 0.0 0.0 
419.900946878 710.54 -1227.06476519 176.011607758 -34.855712306 175.260749788 -2.49642 0.296077 0.893085 -2.496 0.23865 0.910113 -2.49158 0.00114469 0.940879 -2.49278 0.149718 0.928892 3.43301 8.86167 0.870699 3.64934 14.6587 1.53625 -0.0 0.0 -0.0 7.55809 -10.6052 14.549 1.30152 10.188 69.1583 0.545751 -15.1284 0.0724723 3.11589 0.0993157 -0.385545 0.585743 -1.63908 3.23621 -0.0 0.0 -0.0 12.3101 26.0959 -24.0791 -10.5879 -3.30842 -64.5126 0.452916 12.6457 -0.0501856 1.18564 -0.0402638 0.146073 -1.58898 7.93582 14.241 0.0 0.0 0.0 -2.21121 29.4312 3.40929 -7.96271 0.245027 1.19649 27.725 -0.00595593 -3.66263 40.1734 -0.0 -0.0 -0.0 0.0 -0.0 7.51138 9.7001 7.30684 -23.8646 -0.229775 -3.62861 2.61435 -17.2642 0.384778 24.0801 -0.0 -0.0 0.0 0.0 0.0 
